<!DOCTYPE svg PUBLIC "-//W3C//DTD SVG 20010904//EN" "http://www.w3.org/TR/2001/REC-SVG-20010904/DTD/svg10.dtd">
<svg version="1.0" xmlns="http://www.w3.org/2000/svg" width="448px" height="200px" viewBox="0 0 4480 2000" preserveAspectRatio="xMidYMid meet">
<g id="layer1" fill="#ffffff" stroke="none">
 <path d="M788 1609 c-161 -138 -297 -256 -302 -263 -6 -9 33 -93 122 -262 72 -137 138 -258 145 -268 13 -18 28 -12 280 118 214 110 267 141 267 157 0 23 -176 712 -190 747 -5 12 -14 22 -19 22 -5 0 -141 -113 -303 -251z"/>
 <path d="M3208 1730 c-49 -15 -90 -52 -114 -104 -23 -50 -24 -58 -24 -318 l0 -268 -53 0 c-29 0 -58 -5 -65 -12 -16 -16 -16 -160 0 -176 7 -7 36 -12 65 -12 l53 0 0 -128 c0 -86 4 -132 12 -140 8 -8 45 -12 99 -12 117 0 119 3 119 162 l0 118 113 0 c75 0 117 4 125 12 16 16 16 160 0 176 -8 8 -50 12 -125 12 l-113 0 0 228 c0 164 3 231 12 240 18 18 56 15 126 -10 79 -28 88 -23 125 66 22 53 25 70 17 87 -31 57 -274 109 -372 79z"/>
 <path d="M3886 1729 c-144 -34 -280 -176 -315 -330 -26 -111 -6 -265 46 -361 35 -64 130 -153 195 -183 213 -97 462 -10 556 193 20 45 27 77 30 148 7 146 34 134 -315 134 l-295 0 6 33 c10 54 56 109 116 140 74 38 146 35 246 -12 40 -18 80 -31 90 -29 21 4 103 106 104 130 0 36 -114 106 -217 133 -63 16 -186 18 -247 4z m284 -574 c0 -42 -62 -115 -113 -134 -79 -30 -188 9 -231 81 -14 25 -26 50 -26 56 0 9 51 12 185 12 160 0 185 -2 185 -15z"/>
 <path d="M1806 1698 c-14 -20 -16 -107 -16 -744 l0 -723 26 -20 c21 -17 41 -21 96 -21 60 0 72 3 93 25 l25 24 0 446 c0 245 2 445 6 445 3 0 77 -65 166 -145 l160 -146 112 3 111 3 3 31 c3 29 -10 43 -170 190 -95 87 -174 160 -176 164 -1 3 92 100 208 215 l210 210 0 -388 c0 -249 4 -395 10 -408 9 -17 22 -19 105 -19 83 0 96 2 105 19 6 13 10 164 10 424 0 474 10 437 -115 437 -59 0 -83 -4 -97 -17 -17 -15 -19 -15 -36 0 -15 14 -40 17 -125 17 l-106 0 -190 -192 -190 -193 -1 173 c0 215 1 212 -124 212 -76 0 -86 -2 -100 -22z"/>
 <path d="M255 1153 c-99 -86 -181 -162 -183 -169 -5 -20 469 -854 485 -854 17 0 854 398 871 415 12 10 6 43 -33 196 -69 271 -74 289 -92 289 -9 0 -135 -57 -281 -126 -145 -69 -267 -122 -271 -118 -5 5 -63 108 -131 229 -141 251 -167 295 -178 294 -4 0 -88 -70 -187 -156z"/>
 <path d="M2703 661 c-88 -55 -83 -199 8 -247 54 -27 115 -14 161 35 34 36 38 46 38 91 0 45 -4 55 -38 92 -33 35 -45 41 -88 45 -37 3 -57 -1 -81 -16z"/>
 </g>

</svg>